<?xml version="1.0" encoding="UTF-8"?>
<svg version="1.1" xmlns="http://www.w3.org/2000/svg" width="277" height="257">
<path d="M0 0 C5.28 0 10.56 0 16 0 C16 3.3 16 6.6 16 10 C21.28 10.33 26.56 10.66 32 11 C32 16.94 32 22.88 32 29 C27.47617457 29.75397091 24.92908376 30.08596965 20.625 29.5625 C19.75101563 29.46066406 18.87703125 29.35882813 17.9765625 29.25390625 C17.32429687 29.17011719 16.67203125 29.08632812 16 29 C16.00138269 29.97845509 16.00138269 29.97845509 16.00279331 30.97667694 C16.02490402 46.86874437 16.0414386 62.76080643 16.05181217 78.65288544 C16.05696244 86.33825738 16.06398092 94.02361904 16.07543945 101.70898438 C16.0854251 108.40968092 16.09186266 115.11037001 16.09408849 121.81107378 C16.09538901 125.35708571 16.09843307 128.90307634 16.10573006 132.44908142 C16.11382108 136.41332389 16.11398864 140.37754574 16.11352539 144.34179688 C16.11712067 145.5099292 16.12071594 146.67806152 16.12442017 147.8815918 C16.10420327 163.88270988 16.10420327 163.88270988 13.35205078 166.66748047 C12.64032715 166.98088379 11.92860352 167.29428711 11.1953125 167.6171875 C10.39480469 167.99061279 9.59429687 168.36403809 8.76953125 168.7487793 C7.89683594 169.12043213 7.02414063 169.49208496 6.125 169.875 C4.27245346 170.73094634 2.42091151 171.58906985 0.5703125 172.44921875 C-0.3690918 172.87509277 -1.30849609 173.3009668 -2.27636719 173.73974609 C-6.26046831 175.58323211 -10.1279835 177.62137393 -14 179.6875 C-15.12088013 180.27470825 -15.12088013 180.27470825 -16.2644043 180.8737793 C-20.63277336 183.17020882 -24.96065339 185.52831051 -29.26217651 187.94792175 C-31.77272867 189.35695765 -34.2919358 190.75012943 -36.81176758 192.14248657 C-38.05106778 192.83292905 -39.28621962 193.53087685 -40.5168457 194.23666382 C-51.56664608 200.56964943 -51.56664608 200.56964943 -56.83203125 199.92578125 C-57.87746094 199.62027344 -58.92289062 199.31476563 -60 199 C-60 198.34 -60 197.68 -60 197 C-60.66902344 196.74734375 -61.33804688 196.4946875 -62.02734375 196.234375 C-65.62655464 194.73982751 -69.08798744 193.00924686 -72.5625 191.25 C-73.99862313 190.52589332 -75.43482163 189.8019361 -76.87109375 189.078125 C-77.92659424 188.54541992 -77.92659424 188.54541992 -79.00341797 188.00195312 C-80.73796867 187.13149628 -82.47970747 186.27539174 -84.22265625 185.421875 C-90.25922752 182.4645238 -96.10292725 179.2731806 -101.91259766 175.89941406 C-106.10002634 173.47824677 -110.34529114 171.26665841 -114.71875 169.203125 C-117.73782412 167.61087358 -120.33190527 166.16229551 -123 164 C-123.81332397 160.81922913 -123.81332397 160.81922913 -123.89990234 157.01586914 C-123.93512245 155.97365456 -123.93512245 155.97365456 -123.97105408 154.91038513 C-124.03982348 152.61825093 -124.06472384 150.32818944 -124.0859375 148.03515625 C-124.11751644 146.4385646 -124.15054744 144.84200107 -124.18496704 143.24546814 C-124.24976731 139.9006677 -124.29198826 136.55649011 -124.31933594 133.21118164 C-124.35686188 128.92763058 -124.45782913 124.64827758 -124.57677269 120.36631107 C-124.66002626 117.06964042 -124.70568154 113.77324286 -124.74046707 110.47573662 C-124.76235381 108.89709719 -124.7967714 107.31857918 -124.8440361 105.74049568 C-125.18418538 93.4772871 -125.18418538 93.4772871 -122.41989136 90.02879333 C-120.32401181 88.67940773 -118.34493685 87.83308379 -116 87 C-114.79492902 86.37093095 -113.59820828 85.72553166 -112.41162109 85.06225586 C-111.20068327 84.44293924 -109.98788929 83.82724095 -108.7734375 83.21484375 C-108.11121689 82.87676193 -107.44899628 82.53868011 -106.76670837 82.19035339 C-105.36077956 81.47261118 -103.95412371 80.75629151 -102.54678345 80.0413208 C-89.99830182 73.66348646 -77.55775921 67.13169287 -65.23828125 60.3203125 C-55.51048871 54.97382109 -55.51048871 54.97382109 -52.5625 55.125 C-50 56 -50 56 -46.4375 57.5625 C-43.00594086 59.25720409 -43.00594086 59.25720409 -39 59 C-38.01 52.07 -37.02 45.14 -36 38 C-27.75 38 -19.5 38 -11 38 C-11 34.04 -11 30.08 -11 26 C-9.38219843 24.38219843 -7.54364482 24.77727853 -5.30859375 24.68359375 C-4.36435547 24.64169922 -3.42011719 24.59980469 -2.44726562 24.55664062 C-0.95743164 24.49766602 -0.95743164 24.49766602 0.5625 24.4375 C1.55958984 24.39431641 2.55667969 24.35113281 3.58398438 24.30664062 C6.0558415 24.20019702 8.5278031 24.09818072 11 24 C11 21.03 11 18.06 11 15 C7.37 14.67 3.74 14.34 0 14 C-0.89149558 10.43401768 -1.02899714 8.79683048 -0.5625 5.3125 C-0.46066406 4.52488281 -0.35882813 3.73726562 -0.25390625 2.92578125 C-0.12822266 1.97251953 -0.12822266 1.97251953 0 1 C0 0.67 0 0.34 0 0 Z M-63.6171875 95.39453125 C-64.27075226 95.74255295 -64.92431702 96.09057465 -65.59768677 96.44914246 C-66.98237888 97.18779563 -68.36596698 97.92852154 -69.74853516 98.67114258 C-71.85673279 99.80269527 -73.96905365 100.92623169 -76.08203125 102.04882812 C-77.42733926 102.76775045 -78.77239948 103.4871367 -80.1171875 104.20703125 C-80.74648163 104.54152786 -81.37577576 104.87602448 -82.0241394 105.22065735 C-83.69648796 106.12208751 -85.34922078 107.0596522 -87 108 C-87.79390137 108.41378906 -88.58780273 108.82757813 -89.40576172 109.25390625 C-91.94923041 112.03964715 -91.49186517 115.15938222 -91.390625 118.73046875 C-91.38496521 119.48088943 -91.37930542 120.23131012 -91.37347412 121.00447083 C-91.35109668 123.39946504 -91.30090171 125.79295869 -91.25 128.1875 C-91.22993659 129.81182734 -91.21168553 131.43617815 -91.1953125 133.06054688 C-91.15122794 137.04094207 -91.08219427 141.02021671 -91 145 C-82.25232389 149.98046356 -73.46706396 154.86661138 -64.5625 159.5625 C-63.72807373 160.00384277 -62.89364746 160.44518555 -62.03393555 160.89990234 C-61.26090088 161.30547363 -60.48786621 161.71104492 -59.69140625 162.12890625 C-59.00248291 162.49056885 -58.31355957 162.85223145 -57.60375977 163.22485352 C-56.14681884 164.0725278 -56.14681884 164.0725278 -55 164 C-55 140.24 -55 116.48 -55 92 C-58.23938893 92 -60.8201696 93.89048201 -63.6171875 95.39453125 Z " fill="#C0F64C" transform="translate(189,41)"/>
<path d="M0 0 C5.28 0 10.56 0 16 0 C16 3.3 16 6.6 16 10 C21.28 10.33 26.56 10.66 32 11 C32 16.94 32 22.88 32 29 C27.47617457 29.75397091 24.92908376 30.08596965 20.625 29.5625 C19.75101562 29.46066406 18.87703125 29.35882813 17.9765625 29.25390625 C17.32429688 29.17011719 16.67203125 29.08632812 16 29 C16.00092179 29.65230339 16.00184359 30.30460678 16.00279331 30.97667694 C16.02490402 46.86874437 16.0414386 62.76080643 16.05181217 78.65288544 C16.05696244 86.33825738 16.06398092 94.02361904 16.07543945 101.70898438 C16.0854251 108.40968092 16.09186266 115.11037001 16.09408849 121.81107378 C16.09538901 125.35708571 16.09843307 128.90307634 16.10573006 132.44908142 C16.11382108 136.41332389 16.11398864 140.37754574 16.11352539 144.34179688 C16.11712067 145.5099292 16.12071594 146.67806152 16.12442017 147.8815918 C16.10970933 159.52481658 16.10970933 159.52481658 15 165 C12.0625 167.0625 12.0625 167.0625 9 168 C8.34 167.67 7.68 167.34 7 167 C11.75 164 11.75 164 14 164 C14 127.37 14 90.74 14 53 C7.07 53 0.14 53 -7 53 C-6.92602303 57.78809579 -6.84322462 62.57431395 -6.73754883 67.36157227 C-6.70429464 68.99005409 -6.67626416 70.61865131 -6.65356445 72.24731445 C-6.62002643 74.58855361 -6.56771415 76.92873486 -6.51171875 79.26953125 C-6.50532883 79.99775589 -6.4989389 80.72598053 -6.49235535 81.47627258 C-6.43189589 85.45689745 -6.43189589 85.45689745 -4.49536133 88.79956055 C-4.00189209 89.19570557 -3.50842285 89.59185059 -3 90 C-2.46147382 93.61581862 -2.57763775 95.34111489 -4.5625 98.4375 C-7 100 -7 100 -10.625 99.9375 C-14 99 -14 99 -16 96 C-16.3125 93.5 -16.3125 93.5 -16 91 C-15.50747238 90.5532341 -15.01494476 90.1064682 -14.50749207 89.64616394 C-12.48654784 87.43931617 -12.60570172 86.12359418 -12.56762695 83.16137695 C-12.54783279 82.1805867 -12.52803864 81.19979645 -12.50764465 80.18928528 C-12.50125473 79.13295395 -12.49486481 78.07662262 -12.48828125 76.98828125 C-12.47033005 75.90491989 -12.45237885 74.82155853 -12.43388367 73.70536804 C-12.37965015 70.24111843 -12.34584256 66.77700762 -12.3125 63.3125 C-12.27933851 60.96547542 -12.24484996 58.61846919 -12.20898438 56.27148438 C-12.12141491 50.51430148 -12.06145565 44.75775829 -12 39 C-19.26 39 -26.52 39 -34 39 C-33.93714098 49.63984404 -33.86178222 60.27939646 -33.76428509 70.9189806 C-33.71951789 75.85913786 -33.68027589 80.79921145 -33.65356445 85.73950195 C-33.62759466 90.50532224 -33.5872375 95.27082159 -33.53681374 100.03644371 C-33.5201021 101.85650332 -33.50861465 103.67661849 -33.50238609 105.49674416 C-33.4927915 108.04220009 -33.4647891 110.58682694 -33.43237305 113.13208008 C-33.43452568 114.26604218 -33.43452568 114.26604218 -33.4367218 115.4229126 C-33.42600454 119.43219354 -33.42600454 119.43219354 -31.50032043 122.80815125 C-31.00521469 123.20146133 -30.51010895 123.59477142 -30 124 C-29.45931438 127.63031776 -29.53620159 129.32214079 -31.625 132.375 C-34.69371124 134.47464453 -36.35392711 134.62060815 -40 134 C-42.59814888 131.74827097 -42.95716454 130.34982295 -43.375 126.9375 C-43 124 -43 124 -41.49784851 122.66471863 C-39.35287508 120.28078113 -39.63843241 118.59670612 -39.65942383 115.42700195 C-39.65965042 114.28604568 -39.65987701 113.14508942 -39.66011047 111.96955872 C-39.67559433 110.73823715 -39.69107819 109.50691559 -39.70703125 108.23828125 C-39.71127609 106.97735153 -39.71552094 105.71642181 -39.71989441 104.4172821 C-39.73385373 101.06825057 -39.76079896 97.71983242 -39.79400635 94.37097168 C-39.82471895 90.95244647 -39.83840224 87.53385785 -39.85351562 84.11523438 C-39.88662777 77.40998651 -39.93685982 70.70502867 -40 64 C-41.86408542 62.95936979 -43.74185071 61.94322085 -45.625 60.9375 C-46.66914063 60.36902344 -47.71328125 59.80054688 -48.7890625 59.21484375 C-52.44619966 57.83118237 -54.28559049 57.89844876 -58 59 C-58.66 59.66 -59.32 60.32 -60 61 C-62.125 60.625 -62.125 60.625 -64 60 C-62.61518672 59.12808053 -61.21654754 58.27809616 -59.8125 57.4375 C-59.03519531 56.96183594 -58.25789062 56.48617187 -57.45703125 55.99609375 C-54.45170384 54.77771777 -53.06187194 55.0518074 -50 56 C-48.824375 56.515625 -47.64875 57.03125 -46.4375 57.5625 C-43.00594086 59.25720409 -43.00594086 59.25720409 -39 59 C-38.01 52.07 -37.02 45.14 -36 38 C-27.75 38 -19.5 38 -11 38 C-11 34.04 -11 30.08 -11 26 C-9.38219843 24.38219843 -7.54364482 24.77727853 -5.30859375 24.68359375 C-4.36435547 24.64169922 -3.42011719 24.59980469 -2.44726562 24.55664062 C-0.95743164 24.49766602 -0.95743164 24.49766602 0.5625 24.4375 C1.55958984 24.39431641 2.55667969 24.35113281 3.58398438 24.30664062 C6.0558415 24.20019702 8.5278031 24.09818072 11 24 C11 21.03 11 18.06 11 15 C7.37 14.67 3.74 14.34 0 14 C-0.89149558 10.43401768 -1.02899714 8.79683048 -0.5625 5.3125 C-0.46066406 4.52488281 -0.35882813 3.73726562 -0.25390625 2.92578125 C-0.17011719 2.29027344 -0.08632812 1.65476563 0 1 C0 0.67 0 0.34 0 0 Z " fill="#F4FDE0" transform="translate(189,41)"/>
<path d="M0 0 C0.66 0 1.32 0 2 0 C2.00879936 1.54975273 2.00879936 1.54975273 2.01777649 3.1308136 C2.07493694 12.85740446 2.1476633 22.5837703 2.23571491 32.31013203 C2.28048298 37.31082365 2.3197248 42.31143259 2.34643555 47.31225586 C2.37240445 52.13642878 2.412761 56.96028458 2.46318626 61.7842617 C2.4798985 63.62665049 2.49138557 65.46909418 2.49761391 67.31154823 C2.50720783 69.88813311 2.53520953 72.4638987 2.56762695 75.0402832 C2.56547432 76.18827141 2.56547432 76.18827141 2.5632782 77.35945129 C2.56928839 81.4033596 2.56928839 81.4033596 4.49967957 84.81388855 C4.99478531 85.20530533 5.48989105 85.59672211 6 86 C6.54068562 89.63031776 6.46379841 91.32214079 4.375 94.375 C1.30628876 96.47464453 -0.35392711 96.62060815 -4 96 C-6.59814888 93.74827097 -6.95716454 92.34982295 -7.375 88.9375 C-7 86 -7 86 -5.49784851 84.66471863 C-3.35287508 82.28078113 -3.63843241 80.59670612 -3.65942383 77.42700195 C-3.65965042 76.28604568 -3.65987701 75.14508942 -3.66011047 73.96955872 C-3.67559433 72.73823715 -3.69107819 71.50691559 -3.70703125 70.23828125 C-3.71127609 68.97735153 -3.71552094 67.71642181 -3.71989441 66.4172821 C-3.73385373 63.06825057 -3.76079896 59.71983242 -3.79400635 56.37097168 C-3.82471895 52.95244647 -3.83840224 49.53385785 -3.85351562 46.11523438 C-3.88662777 39.40998651 -3.93685982 32.70502867 -4 26 C-5.86408542 24.95936979 -7.74185071 23.94322085 -9.625 22.9375 C-10.66914063 22.36902344 -11.71328125 21.80054687 -12.7890625 21.21484375 C-16.44619966 19.83118237 -18.28559049 19.89844876 -22 21 C-22.66 21.66 -23.32 22.32 -24 23 C-26.125 22.625 -26.125 22.625 -28 22 C-26.61518672 21.12808053 -25.21654754 20.27809616 -23.8125 19.4375 C-23.03519531 18.96183594 -22.25789062 18.48617187 -21.45703125 17.99609375 C-18.45170384 16.77771777 -17.06187194 17.0518074 -14 18 C-12.824375 18.515625 -11.64875 19.03125 -10.4375 19.5625 C-7.00594086 21.25720409 -7.00594086 21.25720409 -3 21 C-2.01 14.07 -1.02 7.14 0 0 Z " fill="#FAFEF0" transform="translate(153,79)"/>
<path d="M0 0 C6.93 0 13.86 0 21 0 C21 6.6 21 13.2 21 20 C14.07 20 7.14 20 0 20 C0 13.4 0 6.8 0 0 Z " fill="#BFF64A" transform="translate(182,69)"/>
<path d="M0 0 C0.66 0 1.32 0 2 0 C2 7.59 2 15.18 2 23 C3.32 23.66 4.64 24.32 6 25 C7 26 7 26 7.3125 28.8125 C7 32 7 32 5.4375 34.4375 C3 36 3 36 -0.625 35.9375 C-4 35 -4 35 -6 32 C-6.3125 29.5 -6.3125 29.5 -6 27 C-5.50765869 26.55205078 -5.01531738 26.10410156 -4.50805664 25.64257812 C-2.50169626 23.45724663 -2.60530062 22.15205355 -2.55859375 19.21875 C-2.53216797 18.29449219 -2.50574219 17.37023437 -2.47851562 16.41796875 C-2.45821289 14.97357422 -2.45821289 14.97357422 -2.4375 13.5 C-2.40304657 11.59357708 -2.36043137 9.68727944 -2.30859375 7.78125 C-2.29626709 6.93626953 -2.28394043 6.09128906 -2.27124023 5.22070312 C-2 3 -2 3 0 0 Z " fill="#FBFEF5" transform="translate(179,105)"/>
<path d="M0 0 C5.28 0 10.56 0 16 0 C16 3.3 16 6.6 16 10 C21.28 10.33 26.56 10.66 32 11 C32 16.94 32 22.88 32 29 C25.96045207 30.00659132 21.97644437 29.72686486 16 29 C16 34.61 16 40.22 16 46 C15.67 46 15.34 46 15 46 C15 40.06 15 34.12 15 28 C19.95 27.67 24.9 27.34 30 27 C30.33 22.05 30.66 17.1 31 12 C25.72 12 20.44 12 15 12 C15 8.37 15 4.74 15 1 C10.71 1 6.42 1 2 1 C2 4.96 2 8.92 2 13 C5.96 13 9.92 13 14 13 C14 17.62 14 22.24 14 27 C3.605 27.495 3.605 27.495 -7 28 C-7.33 28.66 -7.66 29.32 -8 30 C-8.66 30 -9.32 30 -10 30 C-10.33 30.66 -10.66 31.32 -11 32 C-11.04254356 30.00045254 -11.04080783 27.99958364 -11 26 C-9.38219843 24.38219843 -7.54364482 24.77727853 -5.30859375 24.68359375 C-4.36435547 24.64169922 -3.42011719 24.59980469 -2.44726562 24.55664062 C-0.95743164 24.49766602 -0.95743164 24.49766602 0.5625 24.4375 C1.55958984 24.39431641 2.55667969 24.35113281 3.58398438 24.30664062 C6.0558415 24.20019702 8.5278031 24.09818072 11 24 C11 21.03 11 18.06 11 15 C5.555 14.505 5.555 14.505 0 14 C-0.89149558 10.43401768 -1.02899714 8.79683048 -0.5625 5.3125 C-0.46066406 4.52488281 -0.35882813 3.73726562 -0.25390625 2.92578125 C-0.17011719 2.29027344 -0.08632812 1.65476563 0 1 C0 0.67 0 0.34 0 0 Z " fill="#FBFEF3" transform="translate(189,41)"/>
<path d="M0 0 C4.95 0 9.9 0 15 0 C15 4.62 15 9.24 15 14 C10.05 14 5.1 14 0 14 C0 9.38 0 4.76 0 0 Z " fill="#BFF648" transform="translate(204,54)"/>
<path d="M0 0 C0 0.66 0 1.32 0 2 C-7.92 5.96 -7.92 5.96 -16 10 C-16.33 33.76 -16.66 57.52 -17 82 C-15.68 82.33 -14.36 82.66 -13 83 C-12.34 83.99 -11.68 84.98 -11 86 C-16.75 84.25 -16.75 84.25 -19 82 C-19.33230591 79.05973816 -19.33230591 79.05973816 -19.44580078 75.24291992 C-19.46869675 74.54840225 -19.49159271 73.85388458 -19.5151825 73.13832092 C-19.58701222 70.83586647 -19.64285941 68.53344232 -19.6953125 66.23046875 C-19.71449612 65.44419916 -19.73367973 64.65792957 -19.75344467 63.84783363 C-19.85345262 59.6860882 -19.94037509 55.52428844 -20.01757812 51.36206055 C-20.10011663 47.06325605 -20.22949383 42.76719545 -20.369524 38.46993542 C-20.46835996 35.16483349 -20.5313397 31.85973324 -20.58471298 28.55361366 C-20.61665639 26.96928109 -20.66224209 25.3851621 -20.72177505 23.80162621 C-21.17011854 11.39401604 -21.17011854 11.39401604 -18.27664185 7.94688416 C-16.20524762 6.62887627 -14.31876252 5.78395922 -12 5 C-11.04351562 4.47792969 -10.08703125 3.95585938 -9.1015625 3.41796875 C-8.28429687 3.01191406 -7.46703125 2.60585937 -6.625 2.1875 C-5.79226562 1.76855469 -4.95953125 1.34960938 -4.1015625 0.91796875 C-2 0 -2 0 0 0 Z " fill="#DEFAA1" transform="translate(85,123)"/>
<path d="M0 0 C3.96 0 7.92 0 12 0 C12 3.63 12 7.26 12 11 C8.04 11 4.08 11 0 11 C0 7.37 0 3.74 0 0 Z " fill="#C1F64F" transform="translate(191,42)"/>
<path d="M0 0 C0.33 0 0.66 0 1 0 C1 3.63 1 7.26 1 11 C6.28 11 11.56 11 17 11 C17.020625 13.454375 17.04125 15.90875 17.0625 18.4375 C17.071604 19.21150146 17.08070801 19.98550293 17.09008789 20.78295898 C17.09724913 22.52221717 17.05024702 24.26145304 17 26 C16 27 16 27 12.62109375 27.09765625 C11.22652508 27.09191424 9.83198403 27.07890228 8.4375 27.0625 C5.983125 27.041875 3.52875 27.02125 1 27 C1 33.6 1 40.2 1 47 C0.67 47 0.34 47 0 47 C0 40.4 0 33.8 0 27 C-6.93 27 -13.86 27 -21 27 C-21 26.67 -21 26.34 -21 26 C-14.07 26 -7.14 26 0 26 C0 21.38 0 16.76 0 12 C-3.96 12 -7.92 12 -12 12 C-12 11.67 -12 11.34 -12 11 C-8.04 11 -4.08 11 0 11 C0 7.37 0 3.74 0 0 Z M1 12 C1 16.62 1 21.24 1 26 C5.95 26 10.9 26 16 26 C16 21.38 16 16.76 16 12 C11.05 12 6.1 12 1 12 Z " fill="#E1FAA9" transform="translate(203,42)"/>
<path d="M0 0 C0.33 0 0.66 0 1 0 C1 6.6 1 13.2 1 20 C0.01 20 -0.98 20 -2 20 C-2.33 26.27 -2.66 32.54 -3 39 C-3.33 39 -3.66 39 -4 39 C-4 29.76 -4 20.52 -4 11 C-11.26 11 -18.52 11 -26 11 C-26 10.67 -26 10.34 -26 10 C-18.41 10 -10.82 10 -3 10 C-2.67 7.36 -2.34 4.72 -2 2 C-1.34 2 -0.68 2 0 2 C0 1.34 0 0.68 0 0 Z " fill="#F2FDDB" transform="translate(181,69)"/>
<path d="M0 0 C2.23828125 0.97265625 2.23828125 0.97265625 4.3125 2.0625 C5.00988281 2.42472656 5.70726562 2.78695312 6.42578125 3.16015625 C7.20501953 3.57587891 7.20501953 3.57587891 8 4 C8 4.66 8 5.32 8 6 C2.32989691 4.19587629 2.32989691 4.19587629 0 2.8125 C-2.92601787 1.62380524 -4.99901325 2.21713389 -8 3 C-8.66 3.66 -9.32 4.32 -10 5 C-12.125 4.625 -12.125 4.625 -14 4 C-12.61518672 3.12808053 -11.21654754 2.27809616 -9.8125 1.4375 C-8.64654297 0.72400391 -8.64654297 0.72400391 -7.45703125 -0.00390625 C-4.4327755 -1.22995588 -3.08012466 -0.97472299 0 0 Z " fill="#F6FDE6" transform="translate(139,97)"/>
<path d="M0 0 C0 0.66 0 1.32 0 2 C-1.40751221 2.86916887 -2.8264521 3.71985149 -4.25 4.5625 C-5.03890625 5.03816406 -5.8278125 5.51382813 -6.640625 6.00390625 C-9.30844625 7.13022151 -10.34501768 7.0169313 -13 6 C-11.21118264 4.99491199 -9.41885304 3.99607264 -7.625 3 C-6.62726563 2.443125 -5.62953125 1.88625 -4.6015625 1.3125 C-2 0 -2 0 0 0 Z " fill="#E6FCB6" transform="translate(119,105)"/>
<path d="M0 0 C-3.6678852 1.96189209 -6.87248551 3.39301257 -11 4 C-7.64918101 0.31409911 -4.96535219 -1.77334007 0 0 Z " fill="#E9FCC0" transform="translate(136,98)"/>
</svg>
